<svg width="60" height="60" viewBox="0 0 60 60" fill="none" xmlns="http://www.w3.org/2000/svg">
<path d="M7.50009 47.5H52.5001C52.9557 47.4985 53.4023 47.3729 53.7918 47.1365C54.1813 46.9002 54.4989 46.562 54.7106 46.1586C54.9222 45.7551 55.0198 45.3016 54.9929 44.8467C54.9659 44.3919 54.8154 43.9531 54.5576 43.5775L32.0576 11.0775C31.1251 9.72996 28.8801 9.72996 27.9451 11.0775L5.44509 43.5775C5.18465 43.9523 5.03193 44.3914 5.0035 44.8469C4.97508 45.3025 5.07205 45.7572 5.28388 46.1615C5.4957 46.5658 5.81428 46.9043 6.205 47.1403C6.59572 47.3763 7.04364 47.5007 7.50009 47.5Z" fill="#386AE8"/>
</svg>
