<svg width="40" height="40" viewBox="0 0 40 40" fill="none" xmlns="http://www.w3.org/2000/svg">
<path d="M20 3.33325C29.2 3.33325 36.6667 10.7999 36.6667 19.9999C36.6667 29.1999 29.2 36.6666 20 36.6666C10.8 36.6666 3.33333 29.1999 3.33333 19.9999C3.33333 10.7999 10.8 3.33325 20 3.33325ZM20 11.6666C15.4 11.6666 11.6667 15.3999 11.6667 19.9999C11.6691 21.8213 12.268 23.5917 13.3717 25.0405C14.4754 26.4893 16.0232 27.5368 17.7785 28.0229C19.5338 28.509 21.3999 28.4068 23.0917 27.7321C24.7834 27.0574 26.2077 25.8472 27.1467 24.2866L24.2883 22.5733C23.8385 23.3226 23.2001 23.941 22.4368 24.3667C21.6734 24.7924 20.8118 25.0106 19.9379 24.9995C19.064 24.9884 18.2082 24.7484 17.4559 24.3035C16.7036 23.8585 16.0811 23.2241 15.6505 22.4636C15.2198 21.703 14.996 20.8429 15.0015 19.9689C15.0069 19.0949 15.2413 18.2376 15.6814 17.4824C16.1215 16.7273 16.7518 16.1007 17.5095 15.6651C18.2673 15.2295 19.126 15.0002 20 14.9999C21.8217 14.9999 23.4167 15.9733 24.29 17.4283L27.1467 15.7116C26.4062 14.4775 25.3587 13.4563 24.1063 12.7474C22.8539 12.0386 21.4391 11.6662 20 11.6666V11.6666Z" fill="#60EFE5"/>
</svg>
