<svg width="34" height="36" viewBox="0 0 34 36" fill="none" xmlns="http://www.w3.org/2000/svg">
<path d="M16.6285 33.6124C25.7412 33.6124 33.1285 26.2088 33.1285 17.0759C33.1285 7.94299 25.7412 0.539322 16.6285 0.539322C7.51584 0.539322 0.12854 7.94299 0.12854 17.0759C0.12854 26.2088 7.51584 33.6124 16.6285 33.6124Z" fill="#FFCB4C"/>
<path d="M13.2548 20.9843C13.114 20.8715 13.0043 20.7178 12.9519 20.533C12.8219 20.0855 13.0781 19.64 13.5246 19.5398C17.9194 18.5466 20.8788 20.8656 21.004 20.9649C21.3767 21.2625 21.4495 21.7868 21.1719 22.137C20.8943 22.4853 20.3683 22.5271 19.9965 22.2314C19.8898 22.1497 17.5477 20.3608 13.9963 21.1633C13.7304 21.2226 13.4586 21.1477 13.2548 20.9843V20.9843Z" fill="#65471B"/>
<path d="M11.8912 13.9748C13.0303 13.9748 13.9537 12.8181 13.9537 11.3912C13.9537 9.96432 13.0303 8.8076 11.8912 8.8076C10.7521 8.8076 9.82867 9.96432 9.82867 11.3912C9.82867 12.8181 10.7521 13.9748 11.8912 13.9748Z" fill="#65471B"/>
<path d="M22.816 15.0079C23.9551 15.0079 24.8785 13.8511 24.8785 12.4243C24.8785 10.9974 23.9551 9.84066 22.816 9.84066C21.677 9.84066 20.7535 10.9974 20.7535 12.4243C20.7535 13.8511 21.677 15.0079 22.816 15.0079Z" fill="#65471B"/>
<path d="M15.9259 34.7126C15.9259 34.7126 17.1537 34.3128 17.3129 33.3975C17.4808 32.4519 16.7072 32.2623 16.7072 32.2623C16.7072 32.2623 17.7176 32.0599 17.8448 30.9238C17.9641 29.8528 17.0091 29.5979 17.0091 29.5979C17.0091 29.5979 17.9505 29.2088 17.9952 28.1009C18.0321 27.168 17.0295 26.7118 17.0295 26.7118C17.0295 26.7118 21.9193 25.5241 22.4221 25.4074C22.9229 25.2906 23.7032 24.8091 23.4596 23.7596C23.2179 22.709 22.291 22.672 21.8125 22.7839C21.3331 22.8958 15.2669 24.3072 13.1743 24.7955L11.7776 25.1204C11.2535 25.244 11.0157 25.0134 11.3855 24.6224C11.8785 24.101 12.194 23.5242 12.3037 22.567C12.4192 21.5602 12.0785 20.317 11.8834 19.8346C11.5204 18.9387 10.9079 18.2305 10.2004 17.9873C9.09682 17.608 8.31259 18.2996 8.70374 19.5058C9.28997 21.3092 8.90562 22.7888 7.89523 23.6817C5.51826 25.7799 4.41276 27.276 5.14847 30.4646C5.95211 33.9422 9.39674 36.1805 12.8666 35.375L15.9259 34.7126Z" fill="#F19020"/>
<path d="M8.18064 6.69967C8.02147 6.61407 7.88655 6.48178 7.80114 6.31155C7.5915 5.89522 7.76232 5.40982 8.18258 5.22987C12.3231 3.44879 15.6551 5.18804 15.7949 5.26294C16.2151 5.48764 16.385 5.98957 16.1744 6.38548C15.9647 6.77944 15.4561 6.91659 15.0359 6.69481C14.9165 6.63353 12.2872 5.30185 8.94255 6.74053C8.69311 6.84656 8.41164 6.82321 8.18064 6.69967V6.69967ZM19.9587 10.3474C19.8073 10.2521 19.6811 10.1111 19.6073 9.935C19.4258 9.50505 19.6297 9.03327 20.0616 8.88055C24.3137 7.38643 27.5205 9.34746 27.6544 9.43209C28.0572 9.685 28.1931 10.1976 27.9573 10.578C27.7224 10.9573 27.2041 11.0595 26.8013 10.8095C26.6848 10.7395 24.1545 9.23268 20.7186 10.4408C20.4605 10.5293 20.1819 10.4856 19.9587 10.3474V10.3474Z" fill="#65471B"/>
</svg>
