<svg width="30" height="30" viewBox="0 0 30 30" fill="none" xmlns="http://www.w3.org/2000/svg">
<path d="M27.3376 14.375C26.5376 12.9875 22.1376 6.02499 14.6626 6.24999C7.75007 6.42499 3.75007 12.5 2.66257 14.375C2.55286 14.565 2.49511 14.7806 2.49511 15C2.49511 15.2194 2.55286 15.435 2.66257 15.625C3.45007 16.9875 7.66257 23.75 15.0251 23.75H15.3376C22.2501 23.575 26.2626 17.5 27.3376 15.625C27.4473 15.435 27.505 15.2194 27.505 15C27.505 14.7806 27.4473 14.565 27.3376 14.375ZM15.2751 21.25C9.88757 21.375 6.37507 16.7625 5.27507 15C6.52507 12.9875 9.78757 8.87499 14.7876 8.74999C20.1501 8.61249 23.6751 13.2375 24.7876 15C23.5001 17.0125 20.2751 21.125 15.2751 21.25Z" fill="#CCD1DD"/>
<path d="M15.0001 10.625C14.1348 10.625 13.2889 10.8816 12.5694 11.3623C11.85 11.8431 11.2892 12.5263 10.9581 13.3258C10.6269 14.1252 10.5403 15.0049 10.7091 15.8535C10.8779 16.7022 11.2946 17.4817 11.9065 18.0936C12.5183 18.7054 13.2979 19.1221 14.1465 19.2909C14.9952 19.4597 15.8749 19.3731 16.6743 19.042C17.4737 18.7108 18.157 18.1501 18.6377 17.4306C19.1185 16.7112 19.3751 15.8653 19.3751 15C19.3751 13.8397 18.9141 12.7269 18.0936 11.9064C17.2732 11.0859 16.1604 10.625 15.0001 10.625ZM15.0001 16.875C14.6292 16.875 14.2667 16.765 13.9584 16.559C13.65 16.353 13.4097 16.0601 13.2678 15.7175C13.1259 15.3749 13.0887 14.9979 13.1611 14.6342C13.2334 14.2705 13.412 13.9364 13.6742 13.6742C13.9365 13.412 14.2705 13.2334 14.6343 13.161C14.998 13.0887 15.375 13.1258 15.7176 13.2677C16.0602 13.4096 16.353 13.65 16.5591 13.9583C16.7651 14.2666 16.8751 14.6292 16.8751 15C16.8751 15.4973 16.6775 15.9742 16.3259 16.3258C15.9743 16.6775 15.4973 16.875 15.0001 16.875Z" fill="#CCD1DD"/>
</svg>
