<svg width="50" height="50" viewBox="0 0 50 50" fill="#E4E6E8" xmlns="http://www.w3.org/2000/svg">
	<path fill-rule="evenodd" clip-rule="evenodd" d="M20 9.99996C17.3478 9.99996 14.8043 11.0535 12.9289 12.9289C11.0536 14.8043 10 17.3478 10 20C10 22.6521 11.0536 25.1957 12.9289 27.071C14.8043 28.9464 17.3478 30 20 30C22.6522 30 25.1957 28.9464 27.0711 27.071C28.9464 25.1957 30 22.6521 30 20C30 17.3478 28.9464 14.8043 27.0711 12.9289C25.1957 11.0535 22.6522 9.99996 20 9.99996ZM5 20C4.9997 17.6392 5.55661 15.3117 6.62543 13.2068C7.69425 11.1019 9.24481 9.27896 11.151 7.88628C13.0572 6.4936 15.2652 5.57049 17.5954 5.19205C19.9256 4.8136 22.3122 4.99049 24.5612 5.70834C26.8101 6.42619 28.8579 7.66472 30.5379 9.3232C32.2179 10.9817 33.4828 13.0133 34.2296 15.2528C34.9765 17.4923 35.1841 19.8764 34.8358 22.2113C34.4875 24.5462 33.593 26.766 32.225 28.69L44.2675 40.7325C44.7229 41.204 44.9749 41.8355 44.9692 42.491C44.9635 43.1465 44.7006 43.7735 44.237 44.237C43.7735 44.7005 43.1465 44.9635 42.491 44.9692C41.8355 44.9749 41.204 44.7229 40.7325 44.2675L28.6925 32.2275C26.4484 33.8232 23.8084 34.7704 21.0617 34.9653C18.315 35.1602 15.5677 34.5952 13.1207 33.3324C10.6738 32.0696 8.62172 30.1575 7.18931 27.8058C5.7569 25.4542 4.99946 22.7535 5 20V20Z"/>
</svg>
