<svg xmlns="http://www.w3.org/2000/svg" viewBox="0 0 298.25 283.84"><defs><style>.cls-1,.cls-2,.cls-3,.cls-5{fill:none;}.cls-1,.cls-2,.cls-3,.cls-5,.cls-6,.cls-7,.cls-8,.cls-9{stroke:#202833;}.cls-1,.cls-6,.cls-8{stroke-miterlimit:10;}.cls-1,.cls-2,.cls-3,.cls-6,.cls-7,.cls-8,.cls-9{stroke-width:3px;}.cls-2,.cls-3,.cls-4,.cls-5,.cls-7,.cls-9{stroke-linejoin:round;}.cls-3{stroke-linecap:round;}.cls-4{fill:#45a09e;stroke:#45a09e;}.cls-4,.cls-5{stroke-width:2px;}.cls-6,.cls-7{fill:#fff;}.cls-8,.cls-9{fill:#202833;}</style></defs><g id="Слой_2" data-name="Слой 2"><g id="Слой_1-2" data-name="Слой 1"><g id="mask"><path class="cls-1" d="M83.69,193.71s-1.42,9-1.88,12.27-1.19,14.22-1.19,20.27a128.22,128.22,0,0,0,2.59,22.49c1.17,4.48,3.07,16,12.1,22s53.12,11.42,53.12,11.42V207.57s-9.22-.06-21.24-1.25c-9.83-.73-23.79-4.84-30.92-7.12A87.09,87.09,0,0,1,83.69,193.71Z"/><path class="cls-1" d="M213.18,193.71s1.41,9,1.87,12.27,1.19,14.22,1.19,20.27a128.22,128.22,0,0,1-2.59,22.49c-1.16,4.48-3.07,16-12.1,22s-53.12,11.42-53.12,11.42V207.57s9.22-.06,21.24-1.25c9.84-.73,23.79-4.84,30.92-7.12A86.89,86.89,0,0,0,213.18,193.71Z"/></g><path class="cls-2" d="M80.75,177.9,47.94,167.36l-13.71,15,.74,8.08-.07,0L16.09,205.08,15,214.7,1.5,228.15S14.42,251.09,26.05,259s16.75,10.72,24.41,12.22c8,1.58,10.86,1.58,10.86,1.58s-.38-32.94,3.54-54S80.75,177.9,80.75,177.9Z"/><path class="cls-3" d="M59,205.42c-11-3-24-15-24-15"/><path class="cls-3" d="M57,245.42c-23-10-42-31-42-31"/><path class="cls-2" d="M217.5,177.9l32.81-10.54,13.71,15-.74,8.08.07,0,18.82,14.68,1.12,9.62,13.46,13.45S283.83,251.09,272.2,259s-16.75,10.72-24.41,12.22c-8,1.58-10.86,1.58-10.86,1.58s.38-32.94-3.54-54S217.5,177.9,217.5,177.9Z"/><path class="cls-3" d="M239.28,205.42c11-3,24-15,24-15"/><path class="cls-3" d="M241.28,245.42c23-10,42-31,42-31"/><path class="cls-4" d="M156.85,186.68s19.77-3,28.37-4.09c7.65-1,22-2.94,22-2.94s-7.78,7.71-10.08,9.38A26.91,26.91,0,0,1,181,195c-9.53.28-10,.12-12.19-.94S156.85,186.68,156.85,186.68Z"/><path class="cls-4" d="M138.63,186.68s-19.76-3-28.36-4.09c-7.65-1-22-2.94-22-2.94s7.78,7.71,10.08,9.38a26.91,26.91,0,0,0,16.16,6c9.53.28,10,.12,12.19-.94S138.63,186.68,138.63,186.68Z"/><path class="cls-5" d="M149.45,62.17V170.71s31.37,0,47-3.35c14-3,40.89-10.62,40.89-10.62l-10.05-53.85s-21.55-18.31-28.71-21.38-27.86-8.26-27.86-8.26-2.65-5.54-7.54-7.29C158.1,64.13,149.45,62.17,149.45,62.17Z"/><path class="cls-5" d="M149.28,62.17V170.71s-31.36,0-47-3.35c-14-3-40.9-10.62-40.9-10.62l10.06-53.85S93,84.58,100.13,81.51,128,73.25,128,73.25s2.65-5.54,7.53-7.29C140.64,64.13,149.28,62.17,149.28,62.17Z"/><path class="cls-6" d="M286.57,22.66a128.26,128.26,0,0,1,.16,15.48c-.51,6-9.18,34.34-19.41,47.2-10.36,13-34.58,30.5-38.84,32s-43.45,9-47.54,10.73-31.69,11.42-31.69,11.42V103.24s27.09,8.34,31.52,8.51,28.72-5.28,37.62-13.12,12.52-11.55,22.69-23.17,19.56-34.38,20.62-45.23a86.16,86.16,0,0,0-2-26.84L273,12.08l3.68,24.24Z"/><path class="cls-6" d="M12,22.66a128.26,128.26,0,0,0-.16,15.48c.51,6,9.18,34.34,19.41,47.2,10.36,13,34.58,30.5,38.84,32s43.45,9,47.54,10.73,31.69,11.42,31.69,11.42V103.24s-27.09,8.34-31.52,8.51S89,106.47,80.14,98.63,67.62,87.08,57.45,75.46,37.89,41.08,36.83,30.23a86.16,86.16,0,0,1,2-26.84L25.58,12.08,21.9,36.32Z"/><path class="cls-7" d="M149.25,117.8l-14.59-11s-4.8-15.54-5.82-22a67.44,67.44,0,0,1-.85-11.5s2.7-5,5.45-6.25a55.91,55.91,0,0,1,7.66-2.76c2.83-.76,8.18-2.07,8.18-2.07h0Z"/><circle id="medal" class="cls-8" cx="149.45" cy="120.24" r="20.02"/><path class="cls-9" d="M149.53,117.8l14.59-11s4.8-15.54,5.82-22a67.44,67.44,0,0,0,.85-11.5s-2.7-5-5.45-6.25a55.91,55.91,0,0,0-7.66-2.76c-2.83-.76-8.18-2.07-8.18-2.07h0Z"/></g></g></svg>