<?xml version="1.0" encoding="UTF-8" standalone="no"?>
<svg
   xmlns:dc="http://purl.org/dc/elements/1.1/"
   xmlns:cc="http://creativecommons.org/ns#"
   xmlns:rdf="http://www.w3.org/1999/02/22-rdf-syntax-ns#"
   xmlns:svg="http://www.w3.org/2000/svg"
   xmlns="http://www.w3.org/2000/svg"
   xmlns:sodipodi="http://sodipodi.sourceforge.net/DTD/sodipodi-0.dtd"
   xmlns:inkscape="http://www.inkscape.org/namespaces/inkscape"
   version="1.0"
   width="1486.000000pt"
   height="500.000000pt"
   viewBox="0 0 1486.000000 500.000000"
   preserveAspectRatio="xMidYMid meet"
   id="svg38"
   sodipodi:docname="logo_full.svg"
   inkscape:version="0.92.4 (5da689c313, 2019-01-14)">
  <defs
     id="defs42" />
  <sodipodi:namedview
     pagecolor="#ffffff"
     bordercolor="#666666"
     borderopacity="1"
     objecttolerance="10"
     gridtolerance="10"
     guidetolerance="10"
     inkscape:pageopacity="0"
     inkscape:pageshadow="2"
     inkscape:window-width="1920"
     inkscape:window-height="997"
     id="namedview40"
     showgrid="false"
     inkscape:zoom="0.62811639"
     inkscape:cx="886.52515"
     inkscape:cy="200.04149"
     inkscape:window-x="-9"
     inkscape:window-y="45"
     inkscape:window-maximized="1"
     inkscape:current-layer="svg38" />
  <metadata
     id="metadata10">
Created by potrace 1.16, written by Peter Selinger 2001-2019
<rdf:RDF>
  <cc:Work
     rdf:about="">
    <dc:format>image/svg+xml</dc:format>
    <dc:type
       rdf:resource="http://purl.org/dc/dcmitype/StillImage" />
  </cc:Work>
</rdf:RDF>
</metadata>
  <g
     transform="translate(0.000000,500.000000) scale(0.100000,-0.100000)"
     id="g36"
     stroke="none"
     fill="#000000">
    <path
       d="M0 2500 l0 -2500 7430 0 7430 0 0 2500 0 2500 -7430 0 -7430 0 0 -2500z m2822 2244 c919 -128 1681 -820 1893 -1719 45 -191 58 -307 58 -525 0 -212 -13 -330 -54 -510 -189 -822 -833 -1478 -1655 -1686 -202 -51 -340 -67 -564 -67 -434 0 -813 104 -1180 325 -584 351 -970 933 -1076 1623 -23 152 -23 480 0 630 80 511 291 931 646 1285 391 390 901 622 1460 664 97 7 358 -4 472 -20z m2952 -2073 l281 -535 3 524 c1 366 6 527 13 537 15 17 199 19 217 1 17 -17 17 -1479 0 -1496 -8 -8 -54 -12 -142 -12 l-131 0 -315 600 -315 600 -3 -587 c-1 -413 -5 -590 -13 -600 -18 -21 -187 -18 -211 4 -17 15 -18 52 -18 748 0 563 3 734 12 743 9 9 58 12 177 10 l165 -3 280 -534z m4594 527 c8 -8 12 -45 12 -102 0 -134 17 -126 -277 -126 l-243 0 0 -622 c0 -564 -2 -623 -17 -640 -13 -15 -32 -18 -113 -18 -61 0 -100 4 -108 12 -9 9 -12 165 -12 640 l0 628 -248 0 c-180 0 -251 3 -260 12 -8 8 -12 47 -12 108 0 61 4 100 12 108 17 17 1249 17 1266 0z m2367 -423 c39 -8 105 -29 148 -46 l78 -32 -3 -95 c-4 -123 -12 -129 -92 -73 -80 55 -155 82 -252 88 -114 8 -180 -13 -249 -78 -62 -59 -90 -118 -107 -224 -23 -148 22 -309 108 -385 66 -58 117 -75 224 -74 112 0 178 21 271 84 87 59 93 55 97 -62 l3 -96 -58 -27 c-145 -66 -340 -89 -473 -56 -177 44 -297 166 -347 354 -23 86 -22 280 1 367 50 185 184 317 359 355 83 18 206 18 292 0z m-5297 -17 c16 -16 16 -110 0 -126 -7 -7 -36 -12 -65 -12 l-53 0 0 -385 0 -385 53 0 c29 0 58 -5 65 -12 16 -16 16 -110 0 -126 -19 -19 -412 -17 -427 2 -7 9 -11 38 -9 73 l3 58 63 3 62 3 0 384 0 385 -53 0 c-29 0 -58 5 -65 12 -13 13 -17 120 -5 131 12 13 418 8 431 -5z m692 -235 l5 -242 224 245 223 244 93 0 c146 0 147 3 -110 -270 -193 -206 -215 -233 -203 -248 11 -15 223 -261 386 -449 41 -47 52 -67 47 -83 -6 -18 -14 -20 -94 -20 l-88 0 -198 226 -197 227 -42 -49 -41 -48 -5 -175 -5 -176 -85 0 -85 0 -3 520 c-1 286 0 526 3 533 3 9 27 12 87 10 l83 -3 5 -242z m3498 235 c7 -7 12 -39 12 -73 0 -34 -5 -66 -12 -73 -9 -9 -82 -12 -265 -12 l-253 0 0 -115 0 -115 253 0 c183 0 256 -3 265 -12 7 -7 12 -39 12 -73 0 -34 -5 -66 -12 -73 -9 -9 -82 -12 -265 -12 l-253 0 0 -165 0 -165 253 0 c183 0 256 -3 265 -12 7 -7 12 -39 12 -73 0 -34 -5 -66 -12 -73 -17 -17 -679 -17 -696 0 -9 9 -12 140 -12 528 0 284 3 520 7 523 3 4 160 7 348 7 252 0 344 -3 353 -12z m1970 0 c8 -8 12 -67 12 -200 l0 -188 220 0 220 0 2 198 3 197 78 3 c50 2 84 -1 93 -9 12 -10 14 -96 14 -523 0 -385 -3 -515 -12 -524 -16 -16 -150 -16 -166 0 -9 9 -12 78 -12 250 l0 238 -220 0 -220 0 0 -238 c0 -172 -3 -241 -12 -250 -7 -7 -41 -12 -83 -12 -42 0 -76 5 -83 12 -9 9 -12 140 -12 528 0 284 3 520 7 523 12 12 158 8 171 -5z"
       id="path12" />
    <path
       d="M2206 4654 c-297 -40 -615 -154 -861 -309 -49 -31 -95 -62 -102 -68 -18 -18 -43 -161 -43 -250 0 -86 21 -204 50 -277 18 -46 152 -286 193 -345 26 -38 228 -245 239 -245 5 0 36 22 71 49 142 111 236 156 437 206 52 14 71 24 97 54 35 42 56 52 151 75 56 14 68 14 125 0 94 -23 115 -33 150 -75 26 -30 45 -40 97 -54 201 -50 295 -95 437 -206 35 -27 66 -49 71 -49 11 0 201 195 234 240 39 53 177 297 198 350 49 124 62 291 35 433 -8 43 -15 80 -15 83 0 7 -116 82 -206 132 -229 129 -508 221 -778 257 -143 18 -441 18 -580 -1z"
       id="path14" />
    <path
       d="M1123 4175 l-51 -34 -22 -148 c-13 -81 -26 -152 -30 -156 -4 -4 -29 26 -56 67 -47 71 -49 74 -56 49 -12 -43 10 -166 52 -288 75 -225 146 -352 264 -474 67 -69 244 -209 329 -260 25 -15 142 -48 328 -92 160 -38 318 -80 353 -94 34 -14 65 -25 68 -25 3 0 -4 19 -16 43 -23 48 -27 137 -7 175 7 13 11 26 8 28 -3 3 -35 -2 -71 -11 -37 -8 -81 -15 -97 -15 -62 0 -197 43 -314 99 -115 56 -125 63 -232 172 -61 63 -127 134 -146 159 -61 79 -200 332 -224 408 -35 111 -49 254 -35 348 7 43 11 79 9 80 -2 2 -26 -12 -54 -31z"
       id="path16" />
    <path
       d="M3824 4174 c24 -134 14 -272 -30 -403 -27 -81 -162 -325 -225 -407 -21 -28 -87 -98 -146 -155 -97 -93 -120 -110 -223 -161 -115 -57 -267 -108 -321 -108 -15 0 -54 7 -86 15 -75 20 -87 19 -78 -2 24 -57 27 -109 7 -166 -10 -31 -18 -57 -18 -57 1 0 24 9 52 19 28 11 181 49 340 85 159 37 307 75 329 85 71 33 278 196 360 283 117 124 180 239 257 468 41 121 62 239 50 283 -7 25 -10 22 -56 -49 -27 -41 -52 -71 -56 -67 -4 4 -17 75 -30 156 l-22 148 -42 28 c-72 49 -70 49 -62 5z"
       id="path18" />
    <path
       d="M802 3865 c-433 -538 -586 -1238 -416 -1905 219 -856 946 -1499 1828 -1615 151 -19 421 -19 572 0 884 116 1609 758 1828 1617 170 664 16 1366 -416 1903 l-63 79 -8 -78 c-15 -149 -135 -456 -231 -590 -75 -104 -215 -231 -370 -335 l-74 -50 8 -38 c77 -401 84 -444 70 -453 -22 -14 -294 -88 -400 -109 -117 -23 -244 -37 -462 -51 -234 -15 -566 6 -796 51 -105 20 -397 101 -409 113 -6 5 18 142 77 449 l8 38 -74 50 c-155 104 -295 231 -370 335 -96 134 -216 441 -231 590 l-8 78 -63 -79z m693 -1635 c99 -33 186 -62 193 -65 9 -3 0 -30 -32 -93 -85 -169 -136 -346 -156 -537 -8 -78 -29 -433 -30 -502 0 -17 -21 -16 -115 7 -128 32 -252 99 -331 178 -70 70 -205 245 -238 307 l-20 36 81 81 81 81 228 -155 c126 -85 234 -157 240 -161 6 -4 19 2 28 12 15 17 8 23 -135 122 -139 95 -344 266 -344 287 0 13 207 182 223 182 7 0 80 -34 163 -76 149 -74 176 -80 167 -39 -2 10 -72 55 -174 112 l-172 96 81 93 c45 52 82 94 82 94 0 0 81 -27 180 -60z m2269 -31 c57 -66 75 -94 67 -102 -6 -6 -81 -50 -168 -98 -95 -52 -159 -94 -161 -104 -9 -41 18 -35 167 39 83 42 156 76 162 76 12 0 222 -166 227 -179 6 -17 -204 -192 -347 -290 -143 -99 -150 -105 -135 -122 9 -10 22 -16 28 -12 6 4 114 76 239 161 l228 154 82 -80 81 -81 -20 -36 c-32 -62 -160 -226 -233 -301 -49 -50 -92 -83 -147 -111 -124 -64 -304 -112 -304 -82 -1 71 -22 427 -31 509 -20 194 -68 360 -158 538 -30 59 -38 84 -29 87 25 10 363 123 368 124 3 1 40 -40 84 -90z m-1405 -146 c7 -5 -30 -31 -93 -63 -48 -24 -71 -30 -125 -30 -80 0 -163 21 -206 52 -50 36 -135 110 -135 118 0 6 550 -69 559 -77z m786 46 c-97 -100 -186 -139 -312 -139 -65 0 -100 12 -188 68 l-40 25 285 43 c157 23 287 42 290 43 2 0 -14 -17 -35 -40z m-1315 -153 c140 -58 347 -102 580 -125 194 -18 596 53 789 140 35 16 65 28 67 26 1 -1 11 -56 20 -122 45 -303 4 -617 -99 -772 -59 -88 -201 -137 -538 -187 -156 -23 -157 -23 -280 -5 -296 44 -462 89 -527 145 -73 62 -127 212 -153 424 -13 106 -7 261 16 410 8 52 15 99 15 104 0 4 6 6 13 3 6 -4 50 -22 97 -41z"
       id="path20" />
    <path
       d="M1746 1911 c-66 -323 -5 -736 124 -845 53 -44 215 -86 478 -125 l122 -18 0 262 c0 144 -3 337 -7 428 l-6 166 -41 5 c-283 34 -429 64 -575 119 l-90 34 -5 -26z m276 -207 c51 -17 44 -4 120 -224 l33 -95 3 133 c1 72 4 132 6 132 1 0 23 -7 49 -16 l47 -16 0 -284 c0 -316 5 -297 -69 -270 -37 13 -39 17 -114 236 l-42 125 -3 -152 c-1 -84 -5 -153 -7 -153 -3 0 -23 7 -45 16 l-40 16 0 284 c0 156 4 284 8 284 5 0 29 -7 54 -16z"
       id="path22" />
    <path
       d="M3218 1929 c-9 -5 -63 -24 -120 -43 -117 -39 -255 -68 -438 -91 -68 -9 -127 -19 -130 -21 -3 -3 -7 -194 -8 -425 l-4 -419 26 0 c37 0 216 28 322 50 122 25 212 56 253 87 107 81 174 419 142 712 -16 145 -21 162 -43 150z m-198 -284 l0 -74 -32 -9 -33 -8 -5 -213 -5 -213 -55 -19 c-30 -10 -55 -19 -57 -19 -1 0 -2 93 -2 208 0 227 2 218 -58 198 -22 -7 -23 -6 -23 68 l0 74 98 31 c53 16 113 34 132 39 19 6 36 11 38 11 1 1 2 -33 2 -74z"
       id="path24" />
    <path
       d="M2388 3494 c-29 -9 -56 -26 -72 -47 -15 -17 -31 -38 -37 -45 -8 -10 -8 -34 1 -89 13 -83 55 -261 62 -269 3 -3 21 4 39 15 19 10 49 22 67 26 l32 7 0 147 c0 82 -3 176 -6 210 -8 68 -9 69 -86 45z"
       id="path26" />
    <path
       d="M2136 3364 c-160 -43 -266 -99 -385 -202 l-43 -37 86 -43 c96 -48 171 -76 261 -97 56 -14 67 -13 155 7 52 11 96 22 98 23 2 2 -4 29 -14 60 -9 32 -27 114 -39 182 -13 69 -25 126 -27 127 -1 2 -43 -7 -92 -20z"
       id="path28" />
    <path
       d="M2755 3328 c-6 -50 -41 -206 -66 -297 -3 -10 21 -20 91 -37 89 -21 99 -22 159 -8 80 18 194 63 279 111 l65 37 -34 29 c-64 54 -182 130 -241 154 -44 17 -228 73 -245 73 0 0 -4 -28 -8 -62z"
       id="path30" />
    <path
       d="M1577 2848 c-21 -86 -77 -403 -74 -413 10 -23 323 -105 498 -130 126 -17 457 -40 465 -32 4 3 9 82 12 175 l5 169 -49 17 c-27 9 -59 19 -70 21 -12 3 -48 17 -80 31 -33 15 -76 32 -97 40 -34 12 -582 144 -599 144 -3 0 -8 -10 -11 -22z"
       id="path32" />
    <path
       d="M3093 2799 c-230 -53 -318 -79 -410 -118 -65 -27 -129 -52 -142 -56 l-24 -7 6 -170 c3 -94 9 -173 11 -176 8 -8 345 17 471 34 61 9 178 33 260 55 227 59 235 61 235 79 0 8 -18 108 -40 220 -22 113 -40 206 -40 208 0 6 -58 -6 -327 -69z"
       id="path34" />
  </g>
  <path
     style="fill:#202833;stroke-width:1.19971859"
     d="M -0.27765353,504.0764 C -0.5896166,503.24767 -0.70708305,389.47128 -0.53869017,251.23997 L -0.23252132,-0.08968972 742.76272,-0.392007 1485.758,-0.6943243 V 252.44442 505.58317 H 743.02377 c -593.08884,0 -742.84849804,-0.30359 -743.30142353,-1.50677 z M 293.43749,476.73612 c 86.8219,-17.7486 155.1733,-82.70318 176.70673,-167.92506 5.14159,-20.34863 6.63716,-33.04874 6.64134,-56.39729 0.004,-22.53926 -1.32752,-34.34695 -6.09336,-54.03218 C 460.3584,155.69788 439.77106,119.47906 408.55982,89.073523 374.76558,56.151664 331.56028,33.995513 287.53261,27.009432 272.77793,24.668236 242.93069,23.477521 229.93586,24.711691 159.36165,31.414395 95.070192,71.053515 57.14038,131.24933 c -13.234396,21.00342 -25.358757,52.14262 -30.527261,78.40371 -3.299971,16.76711 -4.465717,48.89544 -2.471698,68.12079 2.540392,24.4932 11.39179,54.09331 23.42546,78.3375 32.885992,66.25526 100.097289,113.80008 173.696159,122.87147 4.92545,0.60709 20.23909,0.95105 34.03032,0.76438 20.18559,-0.27322 27.62333,-0.86035 38.14413,-3.01106 z M 536.35466,332.54346 c 0.40349,-0.40688 0.88269,-27.27442 1.06493,-59.70562 0.18223,-32.43121 0.71954,-58.95037 1.19404,-58.93148 0.4745,0.0189 14.84616,27.0052 31.93705,59.96955 l 31.07431,59.93519 13.04659,-0.34245 c 7.17563,-0.18834 13.34171,-0.63994 13.70243,-1.00357 0.95756,-0.96529 1.55601,-134.71238 0.64254,-143.60549 l -0.77383,-7.53387 h -9.98389 c -6.0319,0 -10.30837,0.53002 -10.80362,1.33899 -0.45085,0.73645 -1.15421,24.99378 -1.56302,53.90518 l -0.74329,52.56617 -28.00937,-53.93674 -28.00934,-53.93674 -16.76739,0.33292 -16.76736,0.33293 -0.73383,19.28669 c -0.96388,25.33274 -0.97629,94.5056 -0.0206,115.11742 l 0.75449,16.27314 4.17915,0.8105 c 4.5583,0.88404 15.40412,0.31314 16.58007,-0.87272 z m 447.30691,-0.75625 c 0.75173,-0.69799 1.41518,-24.41787 1.791,-64.03225 l 0.59708,-62.92358 24.82215,-0.60272 c 20.3064,-0.49306 25.0277,-0.93165 25.9522,-2.41083 1.5219,-2.43513 1.473,-15.25113 -0.069,-18.16052 -1.1977,-2.25922 -3.1606,-2.33159 -63.2425,-2.33159 -70.68862,0 -64.49302,-1.06404 -64.4622,11.07087 0.0322,12.72084 -2.13135,11.73888 26.6844,12.10985 l 25.24035,0.32494 0.597,63.88715 0.597,63.88715 4.77622,0.69934 c 5.78993,0.84778 15.07703,0.005 16.71668,-1.51781 z m 294.33233,-0.22338 c 3.612,-0.98514 9.1961,-2.9305 12.409,-4.323 l 5.8418,-2.53185 -0.6837,-9.12668 c -0.3761,-5.01966 -1.0279,-9.47404 -1.4484,-9.89862 -0.4207,-0.42458 -2.7418,0.46332 -5.1581,1.9731 -10.9344,6.83207 -17.381,9.12675 -27.0802,9.63945 -11.9087,0.6295 -17.8562,-0.94577 -24.17,-6.40165 -7.7253,-6.67553 -11.4633,-15.67189 -12.0397,-28.97615 -0.835,-19.27195 4.895,-31.69441 17.6258,-38.21233 11.434,-5.85396 27.7784,-4.04986 42.024,4.63862 3.698,2.25536 7.2545,4.10066 7.9036,4.10066 1.3996,0 2.6551,-6.8426 2.6735,-14.56968 l 0.014,-5.52904 -11.3401,-3.94613 c -31.5228,-10.96931 -59.4383,-2.68636 -71.4246,21.19279 -4.6179,9.19976 -5.7601,15.26996 -5.7213,30.40741 0.028,10.92582 0.5757,15.61089 2.4745,21.16677 5.8277,17.05098 15.8005,26.68829 32.5541,31.45905 7.5887,2.16092 25.7141,1.61903 35.5467,-1.06272 z m -539.22198,0.87019 5.59636,-0.77437 -0.35501,-6.15678 -0.35501,-6.15679 -5.97023,-0.6027 -5.97024,-0.60271 -0.31504,-38.87474 -0.31507,-38.87473 3.8972,-0.0165 c 8.44977,-0.0357 9.42132,-0.86134 9.02894,-7.67306 l -0.35556,-6.17274 h -21.49283 -21.49284 l -0.31154,4.82168 c -0.41986,6.4982 0.83007,7.98656 7.32814,8.72596 l 5.52089,0.6282 v 39.01932 39.01932 h -5.84248 c -6.27189,0 -7.30802,1.00137 -7.27375,7.02975 0.0263,4.62401 1.25093,5.9676 5.96239,6.54158 7.08006,0.86254 26.82403,0.93455 32.71568,0.11934 z m 138.52188,0.0427 c 1.03875,-0.40239 1.88873,-1.48189 1.88873,-2.39884 0,-0.91696 -9.67178,-13.03944 -21.49283,-26.93885 -11.82112,-13.8994 -21.4929,-25.99447 -21.4929,-26.87793 0,-1.55576 6.43575,-9.07192 29.5527,-34.51383 6.0747,-6.68568 11.04488,-12.98047 11.04488,-13.98842 0,-1.48575 -1.7913,-1.83263 -9.46388,-1.83263 h -9.46395 l -21.87975,24.15671 -21.87982,24.1567 -0.756,-7.58221 c -0.41573,-4.17021 -0.81878,-15.04073 -0.8955,-24.1567 l -0.13958,-16.5745 h -8.3583 -8.35837 v 53.03839 53.0384 h 8.17245 8.17245 l 0.7524,-17.58568 0.7524,-17.58567 3.83827,-4.41321 c 2.11103,-2.42726 4.1724,-4.4132 4.58078,-4.4132 0.40837,0 9.52642,10.17071 20.2623,22.60158 l 19.51987,22.60159 h 6.87743 c 3.78262,0 7.7274,-0.32925 8.76622,-0.73168 z m 278.3104,-0.30318 7.1643,-0.77324 0.3673,-6.51571 c 0.2479,-4.39646 -0.1405,-6.84087 -1.1941,-7.51541 -0.8587,-0.54983 -12.7107,-1.008 -26.3378,-1.01816 l -24.7765,-0.0185 v -16.87586 -16.87585 l 21.7914,-0.0133 c 11.9853,-0.008 23.8063,-0.34949 26.269,-0.76043 l 4.4777,-0.74715 v -6.92411 c 0,-6.79068 -0.072,-6.93863 -3.7314,-7.67751 -2.0523,-0.41436 -13.8733,-0.75338 -26.269,-0.75338 h -22.5377 v -12.03068 -12.03067 l 25.9706,-0.32486 25.9705,-0.32486 v -7.23251 -7.23251 l -34.7979,-0.31934 -34.7979,-0.31937 -0.4265,27.44127 c -0.2345,15.09268 -0.2383,38.94262 -0.01,52.99984 l 0.4182,25.55859 6.7461,0.43132 c 11.7693,0.75253 48.2574,0.65577 55.7019,-0.1477 z m 201.7161,-0.1407 3.0628,-1.17559 v -24.13822 -24.1382 h 22.6869 22.6868 v 24.60512 24.60511 l 4.7503,0.8102 c 6.7079,1.1441 11.5758,-0.17977 12.4258,-3.37933 0.9273,-3.49135 0.9106,-97.08533 -0.018,-100.58355 -0.6582,-2.47957 -1.4249,-2.71219 -8.939,-2.71219 h -8.2191 v 19.88939 19.8894 h -22.6572 -22.6575 l -0.3279,-19.58804 -0.3282,-19.58805 -8.6568,-0.35416 -8.6568,-0.35416 0.018,51.58443 c 0.012,28.37144 0.413,52.18115 0.8955,52.91046 1.8878,2.85344 8.7654,3.70111 13.934,1.71735 z"
     id="path52"
     inkscape:connector-curvature="0" />
  <path
     style="fill:#202833;stroke-width:1.12575758"
     d="m 209.55222,231.16769 c -16.78464,-16.89196 -17.74638,-18.13135 -27.73553,-35.74281 -16.34607,-28.81905 -19.35822,-36.73887 -21.31487,-56.04287 -1.35952,-13.41282 0.96384,-35.0002 4.47253,-41.556239 2.41705,-4.516308 32.87553,-22.344483 51.66653,-30.241828 12.82019,-5.38798 35.54059,-12.931921 48.56908,-16.126579 24.84286,-6.091611 31.78152,-6.786513 67.94683,-6.80484 30.30071,-0.01535 35.25795,0.248141 48.21971,2.563057 17.13956,3.061056 37.90224,8.614554 53.25602,14.244655 22.22832,8.15094 65.07365,31.139753 67.82538,36.391947 2.23186,4.259927 4.00692,19.639287 3.8555,33.404517 -0.17534,15.9391 -2.39688,27.06702 -7.73345,38.73769 -3.66862,8.02295 -17.60219,32.54895 -23.08149,40.62822 -4.60066,6.78373 -28.14775,32.00298 -31.61217,33.85708 -1.80954,0.96843 -4.04866,-0.23391 -13.66799,-7.33936 -17.71452,-13.08506 -29.35264,-18.44444 -56.28639,-25.91995 -4.74816,-1.31786 -8.13347,-3.27917 -12.52582,-7.25691 -6.12894,-5.55039 -11.8691,-8.11108 -22.77522,-10.16006 -4.63542,-0.87088 -7.61156,-0.64995 -14.99247,1.11293 -11.04659,2.63841 -12.49658,3.36411 -19.14226,9.58036 -4.51617,4.22434 -6.86911,5.32748 -18.8773,8.85031 -23.94755,7.02548 -31.82734,10.8537 -49.84008,24.21368 -5.88209,4.36272 -10.98037,7.93857 -11.32951,7.94631 -0.34915,0.008 -7.05282,-6.44494 -14.89703,-14.33931 z"
     id="path54"
     inkscape:connector-curvature="0"
     transform="scale(0.74999998)" />
  <path
     style="fill:#202833;stroke-width:1.12575758"
     d="m 268.1709,267.42666 c -9.69977,-2.6621 -40.27245,-15.8352 -40.27245,-17.35252 0,-0.77507 10.41441,-9.3889 18.01212,-14.89797 5.89117,-4.27165 15.35956,-9.15641 24.20379,-12.48678 7.98274,-3.00596 23.65261,-7.56375 26.00449,-7.56375 0.72956,0 2.33438,5.2207 3.72006,12.10189 1.34034,6.65605 3.72257,17.61254 5.29383,24.34777 1.57127,6.73523 2.44038,12.62895 1.93136,13.09717 -1.27692,1.17455 -22.23822,5.63421 -26.00528,5.5328 -1.68529,-0.0454 -7.48485,-1.29574 -12.88792,-2.77861 z"
     id="path56"
     inkscape:connector-curvature="0"
     transform="scale(0.74999998)" />
  <path
     style="fill:#202833;stroke-width:1.12575758"
     d="m 311.27333,258.64832 c -2.2177,-5.83301 -7.94912,-34.72236 -7.94912,-40.06776 0,-5.29204 0.3948,-6.12108 5.34735,-11.22893 4.01203,-4.13784 6.88135,-5.96629 11.49036,-7.32214 9.18809,-2.7029 9.4502,-2.21322 10.36048,19.35606 0.41067,9.7308 0.79146,21.59892 0.84621,26.37359 l 0.0995,8.68123 -4.77814,1.28662 c -2.62798,0.70764 -6.66052,2.24694 -8.96121,3.42067 -5.24538,2.67599 -5.24829,2.67577 -6.45547,-0.49934 z"
     id="path58"
     inkscape:connector-curvature="0"
     transform="scale(0.74999998)" />
  <path
     style="fill:#202833;stroke-width:1.12575758"
     d="m 370.5835,267.69823 c -5.42032,-1.42913 -10.41637,-3.15967 -11.10235,-3.84565 -0.91247,-0.91247 -0.31405,-5.12627 2.22958,-15.69959 1.91224,-7.94879 4.05855,-18.25178 4.76956,-22.89553 0.71102,-4.64375 1.45505,-9.04527 1.65341,-9.78115 0.79383,-2.94497 32.65211,7.82128 44.70548,15.10785 10.16401,6.14441 23.57093,16.0542 24.1274,17.83388 0.58913,1.88414 -20.4312,12.33683 -33.8168,16.81593 -15.91298,5.32482 -20.42265,5.66606 -32.56628,2.46426 z"
     id="path60"
     inkscape:connector-curvature="0"
     transform="scale(0.74999998)" />
  <path
     style="fill:#202833;stroke-width:1.12575758"
     d="m 336.62951,348.24647 c -0.38395,-8.51354 -0.8305,-18.86586 -0.99233,-23.00516 l -0.29424,-7.52599 17.51438,-6.86538 c 20.12285,-7.88785 27.91757,-10.15794 63.60553,-18.52415 29.80179,-6.98633 38.84937,-8.89345 39.43119,-8.31163 0.69214,0.69213 10.66502,53.61457 10.66502,56.59533 0,2.50424 -0.92169,3.05947 -9.2875,5.59486 -13.64242,4.13454 -39.2559,10.25409 -51.50341,12.30515 -13.35975,2.23732 -47.07842,5.20122 -59.26839,5.20973 l -9.17217,0.006 z"
     id="path62"
     inkscape:connector-curvature="0"
     transform="scale(0.74999998)" />
  <path
     style="fill:#202833;stroke-width:1.12575758"
     d="m 360.75003,302.04047 c 0.007,-0.4369 0.76659,-3.2812 1.68864,-6.32064 2.01077,-6.62833 2.14805,-14.02785 0.37032,-19.96137 -0.71837,-2.3977 -0.99565,-4.66994 -0.61617,-5.04941 0.37947,-0.37947 4.38671,0.22401 8.90499,1.34105 4.51827,1.11706 10.74799,1.97495 13.84382,1.90644 7.85528,-0.17383 24.31636,-5.85509 42.17775,-14.55691 l 15.15955,-7.38554 17.02571,-17.03703 c 18.87125,-18.88379 23.7433,-25.79052 38.28605,-54.27519 11.9636,-23.43291 15.34187,-41.40232 12.52331,-66.61297 -0.56299,-5.03572 -0.50358,-8.16174 0.15512,-8.16174 0.81488,0 7.18222,3.98475 13.37443,8.36986 0.12855,0.091 1.53332,8.25023 3.12172,18.13154 1.5884,9.88131 3.17225,18.87923 3.51966,19.99537 0.84667,2.72012 2.21277,1.47836 8.38205,-7.61916 2.74372,-4.04602 5.3629,-7.3564 5.8204,-7.3564 3.23649,0 1.68475,16.8019 -2.98833,32.35702 -6.96927,23.19835 -15.71297,42.67879 -25.14205,56.01495 -13.9207,19.68897 -49.00605,48.4375 -65.28638,53.49489 -4.17427,1.29672 -24.0538,6.34142 -44.17671,11.21044 -20.12292,4.86902 -38.74014,9.63047 -41.37159,10.58098 -2.63146,0.95051 -4.77899,1.37073 -4.77229,0.93382 z"
     id="path64"
     inkscape:connector-curvature="0"
     transform="scale(0.74999998)" />
  <path
     style="fill:#202833;stroke-width:1.12575758"
     d="m 298.18864,301.26215 c -3.75331,-1.45281 -22.24388,-6.5052 -41.09015,-11.22753 -48.80083,-12.22808 -48.6083,-12.15509 -65.49027,-24.83076 -16.99371,-12.75957 -31.4552,-26.20924 -39.15676,-36.41712 -11.03003,-14.61953 -23.63209,-43.47539 -29.31932,-67.13458 -2.21896,-9.23103 -2.95852,-24.20379 -1.1955,-24.20379 0.54183,0 3.64071,3.84141 6.88641,8.53647 3.4188,4.94547 6.31997,8.11775 6.89662,7.5411 0.54745,-0.54745 2.36728,-9.64918 4.04406,-20.22606 l 3.04869,-19.2307 6.51266,-4.07101 c 3.58196,-2.23906 6.70657,-4.07101 6.94357,-4.07101 0.23701,0 0.18706,7.72551 -0.11099,17.1678 -0.72617,23.00542 1.52455,34.34694 10.44421,52.62917 14.82011,30.3761 26.18162,46.20464 48.63885,67.76234 8.01386,7.69286 12.44341,10.91547 20.71066,15.06753 14.10253,7.08273 27.87543,12.29362 38.02776,14.38759 7.42681,1.53181 9.45238,1.54035 18.01213,0.0759 5.30436,-0.90749 10.22802,-1.85802 10.94144,-2.11229 2.27937,-0.81239 2.51218,0.59608 0.86853,5.25467 -2.47554,7.01644 -2.0818,11.23898 2.36553,25.36766 0.96788,3.07484 0.62149,3.06331 -7.97813,-0.26539 z"
     id="path66"
     inkscape:connector-curvature="0"
     transform="scale(0.74999998)" />
  <path
     style="fill:#202833;stroke-width:1.12575758"
     d="M 298.8782,621.42554 C 275.21464,618.7851 243.12686,610.27597 220.34335,600.59944 87.43571,544.15141 16.148046,401.63917 51.150398,262.36328 c 9.76244,-38.84517 30.570914,-80.18215 56.538212,-112.31572 8.49522,-10.51251 7.61531,-10.94349 9.80733,4.80366 2.59058,18.6104 17.77254,56.73793 29.42484,73.89671 9.11387,13.42077 30.42837,32.72923 51.51496,46.66657 7.32314,4.84028 8.18377,5.77571 7.65928,8.32488 -5.2765,25.64503 -11.01021,61.13202 -10.03484,62.10738 2.68824,2.68825 49.20807,14.68021 66.73676,17.20353 25.92451,3.73192 37.75157,4.5183 68.67121,4.566 52.00631,0.0803 84.50676,-4.39977 128.1879,-17.67001 l 11.67199,-3.54592 -0.73024,-6.81653 c -0.40162,-3.74909 -2.94212,-18.46811 -5.64553,-32.70895 -2.70342,-14.24083 -4.84097,-25.92874 -4.75009,-25.97313 0.0908,-0.0444 5.16926,-3.5338 11.28533,-7.75426 21.93312,-15.13519 39.47564,-31.45436 49.19048,-45.76009 12.70333,-18.70649 26.27946,-55.2978 29.9905,-80.83252 l 0.88527,-6.09121 9.14604,11.72 c 32.89728,42.15551 52.255,86.52197 60.71696,139.15874 2.46399,15.32704 3.37565,52.96641 1.68723,69.66036 -10.21743,101.02297 -70.58621,187.84984 -161.61084,232.44072 -26.29077,12.87924 -50.14963,20.60739 -80.20414,25.97904 -10.74894,1.92116 -18.83517,2.4309 -43.06631,2.71483 -16.40792,0.19226 -34.11295,-0.12807 -39.3445,-0.71182 z m 55.1051,-76.02333 c 26.7917,-3.88127 47.57192,-9.04721 58.61084,-14.57057 17.51654,-8.76447 27.31903,-37.66155 27.281,-80.42267 -0.0151,-16.99345 -2.62333,-43.12974 -4.6817,-46.91409 -0.51058,-0.9387 -2.99869,-0.34758 -8.59877,2.04286 -21.01204,8.96917 -59.37859,17.10174 -87.90548,18.63336 -25.58898,1.37387 -70.09772,-6.73679 -96.78357,-17.63651 -6.10425,-2.49325 -11.41024,-4.53319 -11.79109,-4.53319 -1.09732,0 -4.55186,28.48974 -5.26706,43.43776 -1.40907,29.45002 6.93037,65.73945 18.14806,78.97208 7.62443,8.99397 31.15458,15.63193 82.28095,23.21181 4.39368,0.65138 14.02224,-0.0934 28.70682,-2.22084 z M 195.6788,526.67905 c 0.29113,-2.01229 1.09906,-15.05701 1.79541,-28.98826 1.50927,-30.19503 2.80004,-43.13297 5.7117,-57.251 2.67501,-12.97045 9.85625,-34.70805 14.51518,-43.93734 3.34019,-6.61687 8.1983,-18.14131 7.64798,-18.14257 -0.14576,-3.4e-4 -10.65012,-3.49602 -23.34304,-7.76818 -12.69292,-4.27217 -23.94676,-7.94467 -25.00851,-8.16113 -1.29508,-0.26403 -5.27841,3.42808 -12.1019,11.21707 -5.59428,6.38586 -10.15833,11.95836 -10.14234,12.38333 0.016,0.42499 8.20974,5.33202 18.20835,10.90452 9.9986,5.5725 20.11733,11.52812 22.48608,13.23471 4.42629,3.18899 5.87753,7.5918 2.50236,7.5918 -0.99243,0 -9.98442,-3.85647 -19.9822,-8.56993 -9.99776,-4.71346 -19.25821,-8.98438 -20.57875,-9.49091 -1.97913,-0.75915 -4.45175,0.71738 -14.07198,8.40313 -6.41903,5.12825 -12.89411,10.66033 -14.38907,12.2935 -2.68916,2.93779 -2.69516,2.99537 -0.56288,5.40664 4.50933,5.09934 28.95931,24.75849 44.75488,35.98541 9.05144,6.43344 16.73929,12.42034 17.08414,13.30423 0.34484,0.88389 -0.15133,2.38537 -1.10259,3.33663 -1.55558,1.55557 -4.94353,-0.43375 -33.67928,-19.77571 l -31.94973,-21.50527 -10.52375,10.56769 -10.52375,10.56769 2.2272,4.22369 c 3.15281,5.97899 20.91314,29.45451 28.4093,37.55125 13.07792,14.12572 31.00485,23.99955 52.05806,28.67266 9.58179,2.12684 9.96509,2.05229 10.55913,-2.05365 z m 295.08405,-0.50317 c 15.39096,-4.81506 26.74534,-11.03128 36.09042,-19.75854 9.69767,-9.05656 24.32081,-26.80766 32.21782,-39.10936 l 5.41194,-8.43053 -10.38255,-10.42591 c -5.71041,-5.73424 -10.81741,-10.4259 -11.34889,-10.4259 -0.53148,0 -14.85364,9.38925 -31.82702,20.86498 -26.61173,17.99225 -31.17038,20.69924 -33.11006,19.66116 -1.23717,-0.66212 -2.24939,-1.59783 -2.24939,-2.07937 0,-1.54688 5.86663,-6.32189 19.67701,-16.01568 16.00394,-11.23349 30.23881,-22.5994 39.10731,-31.22546 5.01671,-4.87954 6.16039,-6.59346 5.18444,-7.76941 -1.20724,-1.45461 -16.39606,-13.65924 -24.62309,-19.78531 l -3.99602,-2.97552 -18.76282,8.93668 c -21.88103,10.42188 -24.13612,11.17107 -25.20904,8.37506 -1.05985,-2.76191 2.27035,-5.18998 24.14413,-17.60365 10.15629,-5.76383 18.73496,-11.13869 19.06369,-11.94413 0.62423,-1.52944 -2.76964,-6.20098 -12.95767,-17.83581 l -6.05679,-6.91691 -24.32134,8.11663 c -13.37673,4.46415 -24.5202,8.71323 -24.76326,9.44241 -0.24307,0.72917 2.21531,7.02827 5.46304,13.998 10.39165,22.30082 16.34934,43.0806 18.96438,66.14572 1.0778,9.50636 4.56304,61.67574 4.57742,68.5176 0.006,2.53557 0.25721,2.62313 5.35293,1.86078 2.94104,-0.44 9.40007,-2.06789 14.35341,-3.61753 z M 296.15523,403.30841 c 3.17748,-1.09821 8.64421,-3.73431 12.14829,-5.858 5.81732,-3.52567 6.14687,-3.93155 3.7917,-4.66988 -4.77635,-1.49737 -70.6228,-10.35714 -71.37613,-9.6038 -1.16209,1.16207 19.64131,16.70466 24.53394,18.32974 12.19867,4.05175 22.6325,4.66015 30.9022,1.80194 z m 100.29943,-1.30171 c 6.83898,-2.40371 18.85704,-10.58949 23.30105,-15.8709 1.64524,-1.95525 2.84387,-3.69295 2.66363,-3.86157 -0.18024,-0.16862 -16.53861,2.15446 -36.35195,5.1624 -19.81333,3.00793 -36.53083,5.49193 -37.15,5.51999 -2.23612,0.10132 14.75768,9.55788 19.70076,10.96286 6.45416,1.83446 19.78026,0.91877 27.83651,-1.91278 z"
     id="path68"
     inkscape:connector-curvature="0"
     transform="scale(0.74999998)" />
  <path
     style="fill:#202833;stroke-width:1.12575758"
     d="m 289.81512,361.95251 c -9.59708,-0.82234 -23.58213,-2.55886 -31.07788,-3.85892 -15.00022,-2.60165 -43.96985,-9.82468 -52.79106,-13.16246 -5.57163,-2.10819 -5.62499,-2.17506 -5.25498,-6.58394 0.47001,-5.60042 7.63835,-44.65969 9.23657,-50.32875 0.65458,-2.32187 1.59717,-4.22159 2.09464,-4.22159 1.4563,0 38.27203,8.67063 60.24179,14.18779 11.12887,2.79474 23.80992,6.63296 28.18011,8.52937 4.3702,1.89641 13.01172,5.06066 19.20339,7.03167 l 11.25757,3.58365 -0.30239,17.38793 c -0.16632,9.56336 -0.58271,20.04753 -0.92533,23.29815 l -0.62292,5.91023 -10.89514,-0.13898 c -5.99232,-0.0764 -18.74729,-0.8118 -28.34437,-1.63415 z"
     id="path70"
     inkscape:connector-curvature="0"
     transform="scale(0.74999998)" />
  <path
     style="fill:#202833;stroke-width:1.12575758"
     d="m 312.33027,541.46224 c -34.02741,-5.58773 -51.34473,-9.92848 -60.37019,-15.13237 -8.67343,-5.00092 -16.25646,-21.16822 -20.29699,-43.27393 -3.7313,-20.41394 -2.08183,-72.16268 2.35442,-73.86503 0.72138,-0.27682 4.83227,0.83277 9.13529,2.46575 19.02729,7.22078 38.83738,11.68043 69.85317,15.72535 l 14.74768,1.92331 0.72737,15.89918 c 0.40006,8.74454 0.72923,34.51639 0.7315,57.27076 0.004,38.70175 -0.12302,41.36325 -1.96596,41.24225 -1.08354,-0.0711 -7.79587,-1.08601 -14.91629,-2.25527 z m -9.68938,-17.40822 c 0.37583,-0.97939 0.68332,-17.87 0.68332,-37.53468 v -35.75398 l -4.62021,-1.38425 c -2.54111,-0.76133 -5.32736,-1.65561 -6.19166,-1.98727 -1.29409,-0.49659 -1.57418,1.95169 -1.58684,13.87083 -0.0238,22.43261 -0.47654,22.5285 -7.85099,1.66286 -3.52552,-9.97527 -7.25873,-19.07466 -8.29603,-20.22086 -2.07437,-2.29215 -10.64195,-5.2693 -11.8097,-4.10375 -0.4041,0.40333 -0.88064,17.3005 -1.05898,37.54927 l -0.32427,36.81593 4.26442,1.5265 c 2.34543,0.83957 4.89765,1.76239 5.67161,2.05071 1.07198,0.39935 1.4363,-2.65546 1.52938,-12.82387 0.0672,-7.34145 0.44714,-16.33347 0.84432,-19.98227 l 0.72213,-6.63418 4.37817,13.38872 c 8.14503,24.90806 10.75314,30.83011 14.61485,33.18488 4.28736,2.61432 8.11034,2.77324 9.03048,0.37541 z"
     id="path72"
     inkscape:connector-curvature="0"
     transform="scale(0.74999998)" />
  <path
     style="fill:#202833;stroke-width:1.12575758"
     d="m 336.10276,493.4692 c 0.0724,-27.08854 0.45232,-52.54473 0.84432,-56.56932 l 0.71274,-7.31742 20.82651,-3.06901 c 27.12342,-3.99693 38.9381,-6.62493 57.26544,-12.73786 8.27724,-2.76081 15.22334,-5.01965 15.43577,-5.01965 1.81488,0 4.98097,26.40039 4.96683,41.41575 -0.0261,27.71313 -6.76523,57.4608 -15.80074,69.74718 -3.99651,5.43441 -10.81455,9.00975 -25.04549,13.13371 -10.69133,3.09822 -48.01359,9.66851 -54.9216,9.66851 h -4.41536 z m 56.5498,8.83012 c 0.39772,-7.79761 0.72518,-20.61698 0.72769,-28.48749 l 0.005,-14.31001 4.50303,-1.21254 4.50303,-1.21254 v -9.52555 c 0,-5.23905 -0.30669,-9.52555 -0.68152,-9.52555 -0.83393,0 -17.56922,4.95675 -27.18098,8.05062 l -7.03599,2.26477 v 9.37003 9.37003 l 4.33873,-0.58194 c 3.843,-0.51546 4.42007,-0.27812 5.05054,2.07719 0.39149,1.46253 0.71872,13.88491 0.72718,27.60528 l 0.0154,24.94613 7.15261,-2.32548 7.15261,-2.32549 z"
     id="path76"
     inkscape:connector-curvature="0"
     transform="scale(0.74999998)" />
  <path
     style="fill:#e5e6e9;stroke-width:0.79603082"
     d="m 470.95709,528.95606 c -0.28672,-0.7472 -0.52132,-3.56225 -0.52132,-6.25567 0,-6.7716 -2.15522,-40.30796 -3.6416,-56.66504 -2.50832,-27.60333 -7.1528,-45.12466 -18.93117,-71.41798 -7.19626,-16.06449 -7.10045,-15.36636 -2.38751,-17.39802 2.12601,-0.91649 13.25551,-4.839 24.73222,-8.71671 l 20.86675,-7.05037 5.04568,5.72374 c 11.85367,13.44659 14.59365,17.26442 13.82601,19.26486 -0.51856,1.35133 -5.53748,4.5428 -21.20167,13.48186 -17.59033,10.03826 -21.49283,12.79748 -21.49283,15.1963 0,3.72449 2.70139,2.86258 26.23143,-8.36944 15.62763,-7.45981 17.2272,-8.05991 18.84576,-7.07024 2.62768,1.6067 20.05999,15.18374 24.39806,19.00227 l 3.76622,3.31516 -1.39637,2.39041 c -2.78361,4.76518 -22.44239,20.97419 -45.3625,37.40218 -18.56928,13.30953 -19.67734,14.47521 -15.75502,16.57437 1.88004,1.00617 3.4114,0.0897 33.10122,-19.81061 17.12149,-11.47608 31.43048,-20.75608 31.79775,-20.62223 1.37542,0.50126 21.48921,19.916 21.48921,20.74235 0,1.41985 -11.27992,17.91112 -18.37538,26.86485 -9.90135,12.49448 -23.73336,25.91228 -31.37654,30.43697 -10.88366,6.44302 -29.0296,12.96617 -38.68321,13.90594 -3.7167,0.36182 -4.54016,0.20872 -4.97519,-0.92495 z"
     id="path80"
     inkscape:connector-curvature="0"
     transform="scale(0.74999998)" />
  <path
     style="fill:#e5e6e9;stroke-width:0.79603082"
     d="M 291.59226,632.42008 C 211.13752,621.66208 134.0819,575.27478 86.609638,509.02101 59.479728,471.15766 40.197983,423.14398 32.971399,375.45585 30.140671,356.77591 30.144097,316.49824 32.978483,292.17753 37.592291,252.58835 56.377364,202.65396 79.995614,167.19683 123.93957,101.22555 194.57012,53.777444 273.10974,37.466874 c 22.97414,-4.771109 28.31365,-5.270189 56.03057,-5.237129 34.43856,0.04108 52.85167,1.936635 77.38692,7.966685 83.4818,20.517394 158.36351,79.89803 197.2055,156.38248 14.96437,29.46661 25.72853,63.99006 30.28,97.11576 1.76558,12.85 2.45091,48.04836 1.26133,64.78108 -3.57833,50.33245 -22.04438,102.05125 -51.96536,145.54194 -17.00251,24.71347 -40.62869,49.54732 -65.11108,68.43928 -37.1658,28.67918 -85.13459,49.84652 -132.53913,58.48596 -10.74178,1.95768 -12.49618,2.04061 -48.55788,2.29531 -28.31098,0.19995 -39.38288,7.9e-4 -45.50835,-0.81816 z m 66.60317,-10.79255 c 75.19585,-4.69727 152.48381,-45.43128 201.15243,-106.0158 34.88964,-43.43193 55.05381,-90.7692 62.82524,-147.48817 1.95644,-14.27886 1.97567,-53.33768 0.0339,-68.82843 -6.81897,-54.3989 -27.36208,-103.00092 -62.6987,-148.33605 -7.44189,-9.54758 -8.63263,-10.25286 -8.6612,-5.13006 -0.006,1.20238 -0.87903,6.27877 -1.9385,11.28087 -5.02338,23.71698 -16.85398,53.32839 -28.17243,70.51423 -8.46111,12.84728 -28.66747,31.48779 -50.78307,46.84776 l -9.57222,6.64819 3.43939,18.42678 c 5.34138,28.61682 7.51226,41.97948 7.25226,44.64066 -0.2215,2.26701 -0.64057,2.57418 -5.81093,4.25921 -16.91759,5.5135 -42.59217,11.77293 -59.3043,14.45834 -23.38144,3.75705 -33.4206,4.35463 -73.63285,4.38297 -41.04667,0.0289 -47.59272,-0.39706 -73.63285,-4.79166 -21.63341,-3.65092 -61.77117,-14.50552 -62.71292,-16.95969 -0.77008,-2.00677 4.80613,-37.11883 9.82709,-61.87894 0.49016,-2.41713 0.27347,-2.63377 -9.32657,-9.32469 -23.29016,-16.23248 -41.80495,-33.45924 -50.95203,-47.40741 -7.67841,-11.70864 -19.31728,-38.26949 -24.45998,-55.81971 -2.15981,-7.37067 -3.23601,-12.68537 -5.31688,-26.25686 l -0.54736,-3.56999 -2.76967,3.17197 c -5.35979,6.13831 -18.416355,23.96546 -23.89455,32.62511 -25.305611,40.00181 -39.792312,81.77025 -44.864667,129.35501 -1.386678,13.0087 -1.167262,44.08586 0.40747,57.71223 6.468606,55.97374 27.611902,107.0723 62.252347,150.44983 8.75276,10.9604 32.35191,34.6311 42.95081,43.08102 40.7006,32.4484 86.43483,53.02353 136.99659,61.63269 17.33671,2.95192 46.65987,3.89815 71.91414,2.32059 z M 329.09069,361.5563 c 0.74116,-3.41646 2.0081,-43.51857 1.39355,-44.10985 -0.30135,-0.28994 -3.77183,-1.4993 -7.71218,-2.68747 -3.94035,-1.18818 -12.71659,-4.31026 -19.50276,-6.93796 -12.74759,-4.93606 -33.67447,-10.60588 -71.51039,-19.37464 -12.57019,-2.91323 -19.64259,-4.21701 -20.14579,-3.71382 -0.42647,0.42647 -1.27708,2.70698 -1.89023,5.06777 -1.33654,5.14605 -7.97257,41.3922 -8.7658,47.87902 l -0.56019,4.58114 3.55186,1.57117 c 7.96748,3.52439 38.34145,11.21751 56.33488,14.2685 14.85413,2.51868 45.27322,5.23985 61.82814,5.53088 6.48553,0.11402 6.50536,0.10813 6.97891,-2.07474 z m 36.26902,0.97328 c 32.82453,-2.44012 44.80779,-4.33193 73.23483,-11.5617 20.37124,-5.18095 25.87577,-6.88432 27.12974,-8.39526 1.15066,-1.38645 0.72634,-4.11938 -6.13655,-39.52458 -2.89955,-14.95859 -3.92198,-18.90574 -4.89715,-18.90574 -1.74839,0 -23.02941,4.77859 -49.52933,11.12166 -25.41064,6.08234 -35.53489,9.20254 -55.63803,17.14712 l -13.8464,5.47198 0.53058,15.96589 c 0.2918,8.78125 0.7531,19.10027 1.02511,22.93117 l 0.49455,6.96527 5.65701,-0.002 c 3.11135,-5e-4 13.00039,-0.547 21.97564,-1.21421 z m -59.27102,-60.67559 c -3.5508,-9.24458 -4.51503,-19.7825 -2.38434,-26.05828 0.6771,-1.99434 1.04197,-3.93205 0.81084,-4.30602 -0.23113,-0.37398 -3.74038,0.0353 -7.79833,0.90957 -13.93311,3.00173 -22.86005,1.96818 -40.81139,-4.72512 -9.51675,-3.5484 -24.9535,-11.16587 -30.10453,-14.85548 -6.32288,-4.52899 -29.03092,-27.70702 -35.07598,-35.80194 -7.26621,-9.73018 -13.74189,-20.45958 -21.26932,-35.24071 -11.83375,-23.23716 -13.80009,-31.9023 -13.33417,-58.76056 l 0.29625,-17.07786 -2.79415,1.70177 c -1.5368,0.93597 -4.58743,2.83738 -6.77919,4.22535 l -3.98504,2.52359 -1.84178,12.23918 c -2.23049,14.82227 -4.39891,25.91926 -5.22648,26.74684 -0.75264,0.75263 -4.42704,-3.28626 -9.46002,-10.39843 -2.09085,-2.95461 -4.15058,-5.15629 -4.57718,-4.89264 -1.31869,0.815 -0.85762,11.27521 0.87113,19.76313 4.41139,21.65923 15.78856,49.63899 27.09205,66.62721 8.78796,13.20756 31.41622,34.05583 51.38662,47.34441 8.21033,5.46326 12.04257,6.73161 48.34587,16.00095 31.69466,8.09261 47.55036,12.46706 51.65213,14.25034 3.68865,1.60368 5.6531,1.51887 4.98701,-0.2153 z m 58.57391,-0.65443 c 1.91577,-0.68831 20.67748,-5.51356 41.69269,-10.72278 45.79244,-11.35097 47.85146,-11.93306 53.6042,-15.15378 5.9787,-3.34722 19.17598,-12.97049 28.23746,-20.59034 20.67321,-17.38421 31.98746,-31.92783 41.52527,-53.37756 4.61467,-10.37803 12.65806,-34.17691 14.28908,-42.27871 2.32047,-11.52664 2.58181,-21.40376 0.5663,-21.40376 -0.36011,0 -3.06513,3.42397 -6.01118,7.60881 -4.93945,7.01649 -7.06601,9.14344 -8.10398,8.10548 -0.36238,-0.36238 -3.49718,-17.86472 -5.92418,-33.07601 l -0.92848,-5.81929 -6.69415,-4.45487 c -3.68178,-2.45017 -6.86172,-4.28729 -7.06654,-4.08247 -0.20482,0.20482 -0.0248,3.39533 0.3999,7.09003 1.15118,10.01354 0.94501,25.88659 -0.43935,33.82512 -1.82805,10.48285 -5.55012,20.83711 -12.43229,34.5849 -7.63855,15.25873 -15.45963,28.24541 -21.91089,36.38241 -2.70584,3.41288 -11.30297,12.50377 -19.10474,20.20197 l -14.18504,13.99673 -10.41093,5.26654 c -20.52062,10.38071 -38.19548,16.61466 -47.3013,16.68327 -2.84581,0.0214 -8.8691,-0.76576 -13.38509,-1.74935 -4.51599,-0.98357 -8.42449,-1.57472 -8.68554,-1.31367 -0.26106,0.26106 0.0308,2.53639 0.64859,5.05629 1.49651,6.10414 1.19563,14.51566 -0.75474,21.09929 -0.87547,2.95526 -1.48299,5.3732 -1.35003,5.3732 0.13297,0 1.80919,-0.56315 3.72496,-1.25145 z m -68.63931,-33.77161 c 5.86558,-1.29778 10.86216,-2.55706 11.10351,-2.79841 0.24135,-0.24136 -0.19454,-3.38266 -0.96865,-6.98067 -0.77412,-3.59802 -3.10278,-14.42124 -5.17481,-24.05162 -3.08851,-14.35483 -4.02207,-17.55883 -5.1812,-17.78206 -1.78351,-0.34347 -11.9603,2.38731 -22.26908,5.97556 -8.67867,3.02085 -20.40064,8.64554 -25.93144,12.44298 -5.69551,3.91053 -19.15921,14.93475 -19.15921,15.68777 0,1.8162 29.85385,14.54026 41.79161,17.81206 9.36974,2.56799 12.99559,2.52502 25.78927,-0.30561 z m 96.00345,0.84206 c 12.69636,-3.05552 29.71709,-9.99919 40.363,-16.46623 l 4.89256,-2.97208 -3.84386,-3.48006 c -4.65522,-4.21466 -21.1425,-15.33022 -27.35829,-18.44471 -8.38492,-4.20134 -36.13696,-12.88798 -37.33786,-11.68708 -0.22572,0.22572 -0.91145,3.55679 -1.52384,7.40237 -0.6124,3.84559 -2.74355,14.26864 -4.73591,23.16234 -1.99236,8.89371 -3.43154,16.66793 -3.19817,17.27606 0.68591,1.78745 17.40449,6.42853 23.98603,6.65852 1.31345,0.0459 5.2538,-0.60621 8.75634,-1.44913 z M 318.3094,258.7064 c 2.94611,-1.29305 7.03606,-2.80021 9.08878,-3.34922 l 3.7322,-0.99822 -0.0281,-8.39222 c -0.0513,-15.3452 -1.42289,-41.79427 -2.28353,-44.03502 -1.22575,-3.19133 -2.77937,-3.43308 -9.06103,-1.40994 -5.99351,1.93034 -11.69367,6.39761 -15.00993,11.76344 -1.45762,2.35849 -1.62405,3.48203 -1.19166,8.04507 0.8626,9.10314 7.86671,40.72712 9.02028,40.72712 0.20701,0 2.78684,-1.05796 5.73295,-2.35101 z m -81.833,-21.90038 c 17.27504,-12.5484 27.47206,-17.37392 51.51171,-24.37682 10.38151,-3.02419 13.18458,-4.4311 17.27127,-8.66869 4.54002,-4.70766 7.09791,-6.07872 15.5802,-8.35116 9.14766,-2.4507 15.9,-2.56466 23.71088,-0.40015 7.73946,2.14471 12.25574,4.56926 18.0785,9.70536 4.17417,3.68191 5.85297,4.56359 12.33848,6.47995 28.79244,8.50771 35.39349,11.74662 61.92524,30.38465 2.78541,1.9567 5.4456,3.55763 5.91153,3.55763 1.02169,0 17.60927,-16.84712 25.86063,-26.26527 5.99635,-6.84427 13.62431,-18.94493 24.47427,-38.82489 9.32233,-17.08096 12.09956,-27.02565 12.83407,-45.95613 0.33929,-8.74447 0.12092,-14.49727 -0.81583,-21.49284 -2.05603,-15.354171 -1.79476,-14.84926 -10.6934,-20.665473 -39.14959,-25.588443 -88.95488,-43.341124 -130.6963,-46.585608 -13.10977,-1.018999 -46.97608,-1.01544 -60.49835,0.0064 -40.31705,3.046518 -91.65034,20.934538 -127.54149,44.444163 -11.51427,7.542137 -11.69614,7.812362 -13.88624,20.632658 -2.70316,15.8236 -1.47178,36.1921 3.06138,50.63893 2.96802,9.45886 21.26994,43.2351 28.51779,52.62966 4.17027,5.40546 29.61284,31.43844 30.72542,31.43844 0.47382,0 6.02242,-3.74885 12.33024,-8.33077 z"
     id="path84"
     inkscape:connector-curvature="0"
     transform="scale(0.74999998)" />
  <path
     style="fill:#e5e6e9;stroke-width:0.79603082"
     d="m 181.8746,528.17032 c -20.05319,-5.22648 -36.34334,-14.51604 -48.60471,-27.71717 -9.69804,-10.44135 -30.60035,-38.77611 -30.60035,-41.48125 0,-0.50544 4.74633,-5.64534 10.54741,-11.42199 l 10.5474,-10.50301 24.27894,16.39827 c 37.17798,25.11043 38.6125,25.99104 40.60363,24.92541 3.46402,-1.85388 1.60645,-3.88159 -13.93659,-15.21297 -30.83628,-22.48065 -48.81006,-37.88533 -47.67002,-40.85623 0.5991,-1.56122 18.35496,-16.58168 24.09884,-20.38627 1.94994,-1.29159 4.28991,-2.34827 5.19994,-2.34818 0.91002,9e-5 7.38601,2.72127 14.39108,6.04707 25.20492,11.96656 29.4435,13.38908 28.91148,9.70304 -0.37384,-2.59013 -5.57728,-6.14881 -26.48982,-18.11661 -10.30716,-5.89857 -18.73854,-10.91357 -18.7364,-11.14443 0.005,-0.55726 11.99772,-14.62188 16.19122,-18.98872 1.81921,-1.89441 3.94471,-3.79309 4.72334,-4.21929 1.06495,-0.58293 6.88298,1.0191 23.48291,6.46613 26.59021,8.7252 26.44538,8.67003 26.44538,10.07345 0,0.61627 -2.4922,6.57289 -5.53822,13.23694 -6.80722,14.89274 -10.416,24.76931 -14.00068,38.31728 -4.66254,17.62166 -5.97645,29.24736 -8.71878,77.14532 -0.6474,11.30742 -1.38146,20.88964 -1.63126,21.29383 -0.75652,1.22407 -5.93602,0.75941 -13.49474,-1.21062 z"
     id="path86"
     inkscape:connector-curvature="0"
     transform="scale(0.74999998)" />
  <path
     style="fill:#e5e6e9;stroke-width:0.79603082"
     d="m 326.3542,547.90045 c -1.09455,-0.16936 -6.82597,-1.04148 -12.7365,-1.93804 -16.49846,-2.50264 -38.10929,-6.88551 -47.05603,-9.54338 -20.80497,-6.18069 -26.81001,-11.8005 -33.60718,-31.45127 -5.16107,-14.92079 -8.49224,-35.37055 -8.49224,-52.1332 0,-11.95561 3.85701,-49.37721 5.2358,-50.79902 0.16926,-0.17454 5.41875,1.66473 11.66552,4.08727 19.11679,7.41361 37.86711,12.09304 63.4978,15.84686 15.58126,2.28199 36.71842,2.43513 52.14001,0.37774 23.68479,-3.15977 50.51543,-9.57062 66.95139,-15.9972 10.28697,-4.02228 11.16891,-4.18746 11.78014,-2.20626 0.97279,3.15314 2.8413,17.20181 3.62089,27.22417 3.65955,47.04704 -5.57361,85.79154 -23.24026,97.52153 -5.11367,3.3953 -14.35218,6.84131 -26.73738,9.97319 -19.45516,4.91968 -55.87837,10.14293 -63.02196,9.03761 z m 2.79521,-9.10678 c 0.5811,-5.00675 -0.23818,-77.16061 -1.10997,-97.75579 l -0.4912,-11.60402 -7.9603,-0.97339 c -30.45807,-3.72444 -50.26475,-7.84106 -71.04548,-14.7661 -7.99001,-2.66262 -14.71373,-4.65468 -14.94162,-4.42679 -1.04612,1.04613 -2.7786,13.58427 -3.64775,26.39918 -1.50184,22.14362 0.43399,44.69848 5.26812,61.38003 4.4286,15.28217 9.41814,24.05128 16.32785,28.69614 4.34369,2.91993 16.22655,6.85118 29.03337,9.6052 9.26749,1.99291 44.03589,8.13261 46.68864,8.24467 1.02681,0.0434 1.43834,-1.00808 1.87834,-4.79913 z m 32.4298,0.81478 c 33.96738,-5.58329 50.92447,-10.92244 57.12748,-17.98728 11.18485,-12.73884 19.05408,-51.80171 16.74303,-83.11235 -1.24385,-16.85186 -3.09849,-29.38968 -4.34742,-29.38968 -0.11247,0 -5.18924,1.62362 -11.28171,3.60804 -23.03278,7.50218 -31.83544,9.51153 -61.16229,13.96126 -11.34757,1.72176 -20.83959,3.33811 -21.09337,3.59189 -0.51738,0.51738 -1.47238,54.62233 -1.58484,89.78896 l -0.0735,22.98874 5.77122,-0.56348 c 3.17417,-0.30992 12.12981,-1.60866 19.90142,-2.8861 z"
     id="path88"
     inkscape:connector-curvature="0"
     transform="scale(0.74999998)" />
  <path
     style="fill:#45a19d;stroke-width:0.1407197"
     d="m 373.22184,404.75173 c -3.40432,-0.30242 -5.40223,-0.88494 -9.31668,-2.71642 -6.49791,-3.04022 -15.18281,-8.11939 -15.18281,-8.87933 0,-0.23399 -0.2339,-0.19064 5.34735,-0.9909 2.43797,-0.34956 12.18985,-1.80236 21.67084,-3.22844 35.96655,-5.4099 46.41293,-6.89678 46.66734,-6.64238 0.15985,0.15986 -0.14159,0.67289 -1.29498,2.20403 -2.61465,3.47098 -6.55947,6.93873 -12.37359,10.87718 -5.39857,3.65695 -10.25156,6.14587 -14.21269,7.28917 -6.0188,1.73721 -15.16128,2.63284 -21.30478,2.08709 z"
     id="path94"
     inkscape:connector-curvature="0"
     transform="scale(0.74999998)" />
  <path
     style="fill:#45a19d;stroke-width:0.1407197"
     d="m 282.09966,405.0446 c -4.79977,-0.30421 -10.47474,-1.4369 -15.76869,-3.14731 -2.36025,-0.76258 -4.06153,-1.6932 -8.51354,-4.65701 -6.23902,-4.15347 -12.52554,-9.00578 -15.75039,-12.15707 -1.70706,-1.66812 -1.81327,-1.98684 -0.66209,-1.98684 5.04715,0 59.26815,7.28412 69.24659,9.30268 1.56544,0.31668 2.68764,0.74465 2.81365,1.07304 0.19659,0.5123 -0.66765,1.25582 -3.55073,3.05474 -4.63365,2.89122 -10.36459,5.69571 -14.28293,6.98951 -3.84254,1.26877 -8.79724,1.82834 -13.53187,1.52826 z"
     id="path96"
     inkscape:connector-curvature="0"
     transform="scale(0.74999998)" />
  <path
     style="fill:#68faf2;stroke-width:0.28143939"
     d="m 377.67708,520.95945 c -0.0184,-0.0387 -0.13614,-11.342 -0.26155,-25.11846 -0.13896,-15.2638 -0.34309,-25.65049 -0.52259,-26.59022 -0.16202,-0.84816 -0.53395,-1.86134 -0.82652,-2.25151 -0.46094,-0.61471 -0.73422,-0.70469 -2.0472,-0.67406 -0.83338,0.0195 -2.59174,0.22217 -3.90747,0.45051 -1.31573,0.22834 -2.48898,0.33099 -2.60723,0.22811 -0.11825,-0.10288 -0.18157,-4.35834 -0.14072,-9.45657 l 0.0743,-9.26952 2.8144,-0.92472 c 9.16839,-3.01245 30.29599,-9.34782 31.17371,-9.34782 0.2354,0 0.52386,0.22164 0.64103,0.49252 0.11717,0.27089 0.27229,4.56903 0.34471,9.55144 l 0.13168,9.05892 -1.51072,0.43204 c -0.83089,0.23763 -2.84052,0.7862 -4.46583,1.21904 l -2.95511,0.78699 -0.18125,16.03663 c -0.16899,14.95145 -0.45007,23.89305 -1.09686,34.89307 -0.14563,2.47666 -0.26591,4.84077 -0.26729,5.25357 -0.002,0.72955 -0.19339,0.81417 -6.82754,3.02547 -6.15571,2.05184 -7.45428,2.43042 -7.56192,2.20457 z"
     id="path100"
     inkscape:connector-curvature="0"
     transform="scale(0.74999998)" />
  <path
     style="fill:#68faf2;stroke-width:0.28143939"
     d="m 296.79311,525.32312 c -6.48321,-2.31115 -8.27505,-5.77344 -17.65728,-34.11841 -2.32989,-7.03891 -4.39525,-12.95711 -4.5897,-13.15156 -0.28377,-0.28376 -0.38518,0.15915 -0.51383,2.24404 -0.30847,4.999 -0.72507,16.17426 -0.89422,23.98698 -0.1781,8.22665 -0.46797,11.5917 -1.04638,12.14755 -0.26383,0.25353 -1.52877,-0.10079 -5.47929,-1.5348 l -5.13627,-1.86443 0.003,-3.38912 c 0.002,-1.86402 0.12713,-14.53412 0.27843,-28.15579 0.2956,-26.61224 0.70626,-41.85484 1.14996,-42.68391 0.19616,-0.36653 0.5973,-0.51704 1.37804,-0.51704 2.28766,0 8.4848,2.43497 10.15619,3.99056 1.31571,1.22454 4.20152,8.05442 8.83792,20.91683 2.40573,6.67404 5.03372,13.87203 6.06246,16.60492 l 0.52971,1.4072 0.0147,-1.40905 c 0.008,-0.77498 0.15467,-1.85149 0.32579,-2.39224 0.19281,-0.60931 0.40178,-6.01325 0.54954,-14.21083 0.22721,-12.60573 0.39455,-15.0176 1.09022,-15.71327 0.22037,-0.22037 1.0731,-0.0581 3.04735,0.57984 1.50775,0.4872 4.05514,1.28832 5.66088,1.78026 l 2.91953,0.89443 -0.17467,34.93619 c -0.0961,19.2149 -0.27285,35.79036 -0.39284,36.83434 -0.28786,2.50459 -0.85193,3.09536 -3.07946,3.22526 -1.06682,0.0622 -2.11622,-0.0786 -3.04008,-0.40795 z"
     id="path102"
     inkscape:connector-curvature="0"
     transform="scale(0.74999998)" />
  <path
     style="fill:#68faf2;stroke-width:0.28143939"
     d="m 951.56554,439.6918 c -11.3913,-0.50107 -14.63864,-1.11018 -16.41781,-3.07951 -1.43038,-1.58326 -1.67652,-2.82476 -1.53726,-7.75388 0.15229,-5.39072 0.56874,-6.30916 3.33419,-7.35338 0.98923,-0.37353 2.56879,-0.49983 7.51453,-0.60083 l 6.26203,-0.12789 v -51.58249 -51.58249 l -3.44763,-0.18831 c -8.64116,-0.47198 -12.03245,-1.79001 -13.19115,-5.12674 -0.42618,-1.2273 -0.49345,-6.30123 -0.14024,-10.57811 l 0.22662,-2.74404 h 28.67519 28.6752 l 0.17873,0.71213 c 0.0983,0.39166 0.1957,3.71617 0.21644,7.38778 0.0438,7.76117 -0.0394,8.07256 -2.49605,9.33706 -1.33958,0.68951 -1.62598,0.72105 -7.77821,0.85659 -3.51308,0.0774 -6.47212,0.22557 -6.57565,0.32928 -0.22594,0.22634 0.61747,102.12109 0.84719,102.35081 0.088,0.088 3.56676,0.5017 7.73057,0.91933 4.16382,0.41763 7.68658,0.83102 7.82836,0.91864 0.3145,0.19437 1.0636,14.69956 0.81109,15.70563 -0.17211,0.68576 -0.33171,0.73758 -3.63208,1.17944 -1.89863,0.25419 -4.71853,0.5871 -6.26645,0.73979 -3.92617,0.3873 -24.19998,0.57228 -30.81761,0.28119 z"
     id="path104"
     inkscape:connector-curvature="0"
     transform="scale(0.74999998)" />
  <path
     style="fill:#68faf2;stroke-width:0.28143939"
     d="m 695.73713,440.81864 c -3.25316,-0.33189 -7.57611,-1.2615 -8.03478,-1.72779 -0.46272,-0.47042 -1.36402,-18.62229 -1.85659,-37.39134 -0.43002,-16.38515 -0.43397,-97.45761 -0.006,-116.09375 0.27621,-12.01818 1.41754,-45.20411 1.5602,-45.3651 0.0477,-0.0538 41.13419,-0.9333 43.55198,-0.93225 l 1.3017,5.7e-4 25.63537,48.90009 c 14.09945,26.89506 30.81084,58.77132 37.13642,70.83614 6.32559,12.06482 11.62916,21.97873 11.78572,22.03092 0.38718,0.12905 0.6563,-12.39098 0.66023,-30.71474 0.007,-33.40142 1.08365,-90.4394 1.97353,-104.56888 0.19145,-3.03963 0.39233,-4.47011 0.66619,-4.74398 1.15595,-1.15595 9.01432,-1.82784 19.78835,-1.69188 4.41515,0.0557 7.48509,0.20598 7.65053,0.37449 0.15198,0.15479 0.55884,2.81439 0.90414,5.91023 0.62244,5.58059 0.62885,6.08181 0.74891,58.53939 0.16006,69.93308 -0.48102,133.77527 -1.35389,134.82701 -0.15264,0.18391 -0.75005,0.40994 -1.3276,0.50229 -3.00192,0.48002 -16.17924,1.07063 -30.54271,1.36893 l -3.88164,0.0806 -5.01249,-9.56859 c -2.75687,-5.26273 -12.20266,-23.30987 -20.99065,-40.10477 -26.5984,-50.83274 -34.84047,-66.43655 -48.83434,-92.45284 -3.83,-7.12041 -7.45246,-13.89607 -8.04991,-15.05701 l -1.08628,-2.11079 -0.20215,4.08087 c -0.43698,8.82149 -0.79417,28.24982 -1.06848,58.11724 -0.62972,68.56436 -1.08637,94.12669 -1.70207,95.27713 -0.28595,0.5343 -1.80639,0.96242 -4.91989,1.38531 -2.90757,0.39492 -11.74257,0.57321 -14.49413,0.29248 z"
     id="path106"
     inkscape:connector-curvature="0"
     transform="scale(0.74999998)" />
  <path
     style="fill:#68faf2;stroke-width:0.28143939"
     d="m 1133.7246,422.87783 c -8.2044,-9.4036 -17.1168,-19.58227 -19.8054,-22.61928 -2.6886,-3.03701 -7.8645,-8.891 -11.5021,-13.00887 l -6.6139,-7.48702 -2.2752,2.45488 c -1.2514,1.35019 -3.7411,4.10131 -5.5327,6.1136 l -3.2574,3.65871 -0.1757,3.37727 c -0.1621,3.11859 -1.8459,42.26031 -1.8459,42.91197 0,0.19274 -3.6553,0.28898 -10.9761,0.28898 h -10.9762 v -70.07841 -70.07841 h 11.2576 11.2576 v 9.92074 c 0,12.13672 0.4278,29.19556 0.9854,39.75332 0.2289,4.33416 0.4166,9.308 0.417,11.05298 l 8e-4,3.17268 0.675,-0.4423 c 0.3713,-0.24326 13.6376,-14.62057 29.4808,-31.94957 l 28.8057,-31.50728 10.3902,-2.9e-4 c 10.9062,-2.9e-4 13.6068,0.21506 14.5522,1.16046 0.7973,0.79736 0.6492,1.5369 -0.7183,3.58588 -2.7981,4.19243 -6.979,9.08394 -19.277,22.553 -28.7628,31.5019 -33.0274,36.43275 -33.7762,39.05276 -0.3192,1.11664 -0.246,1.21954 6.45,9.07338 2.5735,3.01844 7.0747,8.33764 10.0027,11.82046 2.928,3.48281 8.5633,10.13181 12.523,14.77556 18.8828,22.14507 28.4195,34.12134 28.4195,35.68936 0,0.98752 -0.9009,2.31495 -1.9335,2.84894 -1.408,0.72809 -5.0873,1.00394 -13.391,1.00394 h -8.2479 z"
     id="path108"
     inkscape:connector-curvature="0"
     transform="scale(0.74999998)" />
  <path
     style="fill:#68faf2;stroke-width:0.28143939"
     d="m 1292.1072,440.64334 c -1.93,-0.18147 -9.0944,-1.22545 -9.2111,-1.34222 -0.1005,-0.10043 -1.4147,-132.45539 -1.5542,-156.50975 l -0.07,-12.1019 -14.9163,-0.2019 c -25.1372,-0.34026 -44.3692,-0.78216 -46.4225,-1.06666 -3.8155,-0.52867 -6.1677,-1.66709 -7.0768,-3.42502 -1.0448,-2.02046 -1.2701,-19.3771 -0.2822,-21.74146 1.0385,-2.48554 4.9417,-3.65056 14.8021,-4.41809 5.765,-0.44874 104.28,-0.6584 127.6328,-0.27163 23.1794,0.38391 26.0327,0.67707 27.2625,2.80115 1.0991,1.89831 1.3607,3.83852 1.5042,11.15581 0.1384,7.05195 -0.1262,10.33783 -1.0152,12.60973 -1.0198,2.606 -6.5165,3.06753 -47.7337,4.00793 -10.8354,0.24722 -19.8591,0.49982 -20.0525,0.56134 -0.2749,0.0874 -0.3519,2.99242 -0.3519,13.27798 -2e-4,24.24021 -0.9006,103.61749 -1.4088,124.19397 -0.5469,22.14355 -1.0188,29.66814 -1.9024,30.33363 -0.7274,0.54792 -3.0094,1.16633 -5.9762,1.61954 -2.7126,0.41436 -10.9128,0.73521 -13.2277,0.51755 z"
     id="path110"
     inkscape:connector-curvature="0"
     transform="scale(0.74999998)" />
  <path
     style="fill:#68faf2;stroke-width:0.28143939"
     d="m 1476.45,439.40611 c -3.7924,-0.10609 -9.589,-0.35768 -12.8814,-0.5591 -5.7078,-0.34917 -5.9916,-0.39363 -6.103,-0.95581 -0.2716,-1.37086 -0.727,-43.36337 -0.7283,-67.15002 0,-26.33342 0.521,-72.05009 0.8269,-72.36336 0.094,-0.0958 16.9509,-0.008 37.4608,0.19485 20.5099,0.20295 41.3751,0.37631 46.3671,0.38523 l 9.0765,0.0162 v 9.70966 9.70966 l -1.6183,0.006 c -0.8901,0.003 -15.3596,0.19058 -32.1545,0.41603 -16.7949,0.22545 -31.6443,0.41266 -32.9987,0.41603 l -2.4626,0.006 v 15.72126 15.72127 l 26.5256,0.16563 c 41.2958,0.25786 42.6235,0.41061 43.279,4.97896 0.408,2.84335 0.3401,14.06519 -0.09,14.9157 -0.3193,0.63113 -0.6714,0.75302 -3.4435,1.19214 -5.6709,0.89831 -11.9126,1.09853 -39.1824,1.2569 l -27.0885,0.15732 v 22.1973 22.19731 l 23.0076,0.004 c 28.5809,0.006 43.3455,0.46334 45.092,1.39807 0.2874,0.15381 0.7552,0.88268 1.0396,1.61971 0.4355,1.12883 0.5146,2.13852 0.5016,6.40596 -0.01,2.78625 -0.1147,6.29313 -0.2361,7.79307 -0.2149,2.65645 -0.2401,2.73107 -0.9696,2.87775 -2.8821,0.5795 -13.7047,1.33217 -22.5605,1.56901 -11.2883,0.30189 -39.8124,0.29992 -50.6591,-0.003 z"
     id="path112"
     inkscape:connector-curvature="0"
     transform="scale(0.74999998)" />
  <path
     style="fill:#68faf2;stroke-width:0.28143939"
     d="m 1665.1069,440.79338 c -7.2989,-0.65104 -14.3772,-2.75695 -21.9041,-6.51672 -11.7336,-5.86116 -19.9157,-14.28316 -26.044,-26.80764 -3.6888,-7.53885 -5.6328,-13.65927 -6.66,-20.96724 -0.4151,-2.95344 -0.4953,-5.68587 -0.5001,-17.02708 -0.01,-14.39773 0.1404,-16.7786 1.4281,-23.21875 1.0014,-5.00779 2.5985,-9.55291 5.2909,-15.05701 3.4328,-7.01755 6.7897,-11.89178 11.5102,-16.71272 9.97,-10.18217 21.8564,-15.9861 37.9123,-18.51193 4.6433,-0.73047 17.6932,-0.73242 23.078,-0.003 10.3434,1.40026 19.614,3.93784 35.391,9.68737 l 3.4476,1.2564 -0.01,2.57322 c -0.016,5.71017 -0.5613,14.27192 -1.1122,17.47441 -0.5928,3.44622 -1.6089,6.2242 -2.3856,6.52225 -0.5488,0.21059 -5.0637,-2.00065 -9.8631,-4.83066 -10.0462,-5.92372 -16.8989,-8.58286 -26.5959,-10.3204 -3.0266,-0.54231 -4.5013,-0.63037 -10.5541,-0.63023 -5.4393,1.2e-4 -7.6195,0.10913 -9.6072,0.48035 -8.1792,1.52755 -14.6105,5.13866 -21.2565,11.93542 -6.3928,6.53789 -9.7645,13.99549 -11.9504,26.43245 -0.9931,5.65057 -1.2351,14.48218 -0.5507,20.09997 1.221,10.02219 4.288,19.04289 8.7792,25.82163 1.9522,2.94658 6.376,7.4839 9.6782,9.92665 3.2682,2.41761 7.847,4.58381 11.539,5.45897 4.0325,0.95588 7.5155,1.29028 13.4276,1.28914 15.3702,-0.003 23.3046,-2.38154 38.9201,-11.66758 4.7953,-2.85158 7.8456,-4.23034 8.7348,-3.94812 0.596,0.18917 0.8812,1.33242 1.5088,6.04772 0.6745,5.06758 1.0908,10.74025 1.1241,15.31748 l 0.031,4.20063 -4.0809,1.79784 c -11.3458,4.99844 -21.5007,7.98664 -31.2397,9.19262 -7.9242,0.98124 -20.7142,1.30927 -27.4886,0.705 z"
     id="path114"
     inkscape:connector-curvature="0"
     transform="scale(0.74999998)" />
  <path
     style="fill:#68faf2;stroke-width:0.28143939"
     d="m 1796.4747,439.39887 c -2.1995,-0.57598 -4.0347,-1.50439 -4.9305,-2.49429 -0.7515,-0.83041 -0.9243,-3.73769 -1.2758,-21.46858 -0.3381,-17.05554 -0.3939,-116.43311 -0.066,-116.94984 0.1745,-0.27473 2.5689,-0.25183 11.4643,0.10965 6.1841,0.2513 11.3048,0.51082 11.3794,0.57671 0.075,0.0659 0.3197,11.6998 0.5445,25.85313 l 0.4089,25.73333 h 30.062 30.0621 v -26.1901 -26.19011 l 10.0614,0.0866 c 11.3653,0.0978 11.6686,0.14946 12.6214,2.14879 0.7761,1.62879 0.9306,5.1541 1.2293,28.05183 0.4667,35.78193 0.1649,96.49986 -0.5181,104.2114 -0.2016,2.27731 -0.3372,2.74585 -1.0584,3.65871 -1.237,1.56564 -3.9206,2.78894 -6.9822,3.18282 -2.8563,0.36746 -5.0927,0.23 -10.6624,-0.65538 -3.2352,-0.51427 -3.9485,-0.71539 -4.2216,-1.19038 -0.2441,-0.42448 -0.3483,-8.8102 -0.4049,-32.5853 l -0.076,-32.01373 h -30.1083 -30.1082 v 31.60814 c 0,24.86389 -0.075,31.70216 -0.3518,32.04876 -0.4752,0.59523 -4.4835,2.07138 -7.0819,2.60809 -2.9269,0.60458 -7.3821,0.54202 -9.9874,-0.14025 z"
     id="path116"
     inkscape:connector-curvature="0"
     transform="scale(0.74999998)" />
</svg>
